<?xml version="1.0" encoding="utf-8"?>
<!DOCTYPE svg PUBLIC "-//W3C//DTD SVG 1.1//EN" "http://www.w3.org/Graphics/SVG/1.1/DTD/svg11.dtd">
<svg version="1.1" id="Layer_1" xmlns="http://www.w3.org/2000/svg" xmlns:xlink="http://www.w3.org/1999/xlink" x="0px" y="0px" width="133px" height="90px" viewBox="0 0 133 90" enable-background="new 0 0 133 90" xml:space="preserve">
    <g opacity="0.8">
        <line fill="none" stroke="#23232B" stroke-width="2" stroke-miterlimit="10" x1="33.063" y1="84.25" x2="112.563" y2="4.75"/>
        <path fill="none" stroke="#23232B" stroke-width="2" stroke-miterlimit="10" d="M68.313,55.417"/>
        <g>
            <path fill="#222233" d="M21.197,48.765c-2.004,0-4.341-1.653-4.341-3.94c0-2.538,1.023-3.115,1.636-3.974
                                    c0.668-0.935,1.348-1.736,2.671-1.736c1.975,0,11.248-3.065,10.018-1.87C26.54,41.752,27.007,48.765,21.197,48.765z"/>
            <ellipse fill="#4F4F63" cx="21.31" cy="44.691" rx="3.327" ry="3.019"/>
            <ellipse fill="#222233" cx="21.297" cy="44.691" rx="2.063" ry="1.872"/>
            <g>
                <path fill="#4F4F63" d="M12.163,32.075c-1.65-0.004-3.819,1.066-4.821,2.377l-3.958,5.182c-1.002,1.311-0.474,2.288,1.172,2.172
                                        l58.862-4.183c1.646-0.117,3.141-1.386,3.322-2.82c0.181-1.434-1.02-2.61-2.67-2.614L12.163,32.075z"/>
            </g>
        </g>
        <path fill="#636377" d="M76.938,58.188c-6.438,0-15.938,6.875-1.75,6.875c0.812,0,14.125,0.031,14.125,0.031s0,2.219,0.937,2.219
                                c0.938,0,4.063-0.438,4.063-0.438v-0.5l2.25-0.313l0.25-0.5c0,0,13.062-0.369,14.375-0.369c5.375,0,17.375-4.631,18.25-5.568
                                s0.312-1.313-0.125-1.313c-0.438,0-1.688-0.125-1.688-0.125l3.813-9.063l-3.875-0.063c0,0-8.875,8.443-10,9.131
                                C113.75,58.193,76.938,58.188,76.938,58.188z"/>
        <g>
            <g>
                <line fill="none" stroke="#23232B" stroke-width="2" stroke-miterlimit="10" x1="70.063" y1="61.25" x2="71.446" y2="62.694"/>

                <line fill="none" stroke="#23232B" stroke-width="2" stroke-miterlimit="10" stroke-dasharray="3.6552,1.8276" x1="72.711" y1="64.013" x2="91.046" y2="83.146"/>
                <polyline fill="none" stroke="#23232B" stroke-width="2" stroke-miterlimit="10" points="91.679,83.806 93.063,85.25 93.063,83.25"/>

                <line fill="none" stroke="#23232B" stroke-width="2" stroke-miterlimit="10" stroke-dasharray="4.3571,2.1786" x1="93.063" y1="81.071" x2="93.063" y2="69.089"/>
                <polyline fill="none" stroke="#23232B" stroke-width="2" stroke-miterlimit="10" points="93.063,68 93.063,66 94.674,67.184"/>

                <line fill="none" stroke="#23232B" stroke-width="2" stroke-miterlimit="10" stroke-dasharray="4.8253,2.4127" x1="96.618" y1="68.613" x2="101.479" y2="72.185"/>
                <polyline fill="none" stroke="#23232B" stroke-width="2" stroke-miterlimit="10" points="102.451,72.899 104.063,74.083 104.063,72.083"/>

                <line fill="none" stroke="#23232B" stroke-width="2" stroke-miterlimit="10" stroke-dasharray="4.2949,2.1474" x1="104.063" y1="69.936" x2="104.063" y2="45.24"/>
                <polyline fill="none" stroke="#23232B" stroke-width="2" stroke-miterlimit="10" points="104.063,44.167 104.063,42.167 105.617,43.425"/>

                <line fill="none" stroke="#23232B" stroke-width="2" stroke-miterlimit="10" stroke-dasharray="4.0519,2.0259" x1="107.192" y1="44.699" x2="125.304" y2="59.355"/>
                <line fill="none" stroke="#23232B" stroke-width="2" stroke-miterlimit="10" x1="126.091" y1="59.992" x2="127.646" y2="61.25"/>
            </g>
        </g>
        <polyline fill="none" stroke="#23232B" stroke-width="2" stroke-miterlimit="10" stroke-dasharray="4,2" points="6.062,19.75 44.063,29.25 44.063,20.25 63.063,27.25  "/>
    </g>
</svg>
