<?xml version="1.0" encoding="utf-8"?>
<!DOCTYPE svg PUBLIC "-//W3C//DTD SVG 1.1//EN" "http://www.w3.org/Graphics/SVG/1.1/DTD/svg11.dtd">
<svg version="1.1" id="Layer_1" xmlns="http://www.w3.org/2000/svg" xmlns:xlink="http://www.w3.org/1999/xlink" x="0px" y="0px" width="109px" height="92px" viewBox="0 0 109 92" enable-background="new 0 0 109 92" xml:space="preserve">
    <g opacity="0.8">
        <g>
            <g>
                <polygon fill="#23232B" points="0.688,45.778 9.5,42.778 9.5,48.778"/>
                <polygon fill="#23232B" points="54.5,90.778 51.5,81.778 57.5,81.778"/>
                <polyline fill="none" stroke="#23232B" stroke-width="2" stroke-miterlimit="10" points="54.5,83 54.5,46 6.5,46"/>
            </g>
            <g>
                <g>
                    <polygon fill="#23232B" points="108.313,45.778 99.5,48.778 99.5,42.778"/>
                    <polygon fill="#23232B" points="54.5,1 57.5,10 51.5,10"/>
                    <polyline fill="none" stroke="#23232B" stroke-width="2" stroke-miterlimit="10" points="54.5,9 54.5,46 102.5,46"/>
                </g>
            </g>
        </g>
        <g>
            <polygon fill="none" stroke="#4C4C5B" stroke-width="2" stroke-miterlimit="10" points="23.38,31.528 40.566,31.528 40.566,40.837 35.553,40.837 35.553,36.541 32.689,36.541 32.689,55.158 35.553,55.158 35.553,50.146 40.566,50.146 40.566,60.171 23.38,60.171"/>
            <circle fill="#747489" cx="17.025" cy="45.849" r="2.775"/>
            <polygon fill="none" stroke="#4C4C5B" stroke-width="2" stroke-miterlimit="10" points="46.591,31.528 60.823,31.528 60.912,53.883 68.789,53.883 68.789,60.529 54.468,60.529 54.468,38.174 46.591,38.174"/>
            <circle fill="#747489" cx="57.69" cy="43.075" r="2.775"/>
            <path fill="none" stroke="#4C4C5B" stroke-width="2" stroke-miterlimit="10" d="M93,31.707c0,0-20.319,0.58-20.319,14.366 C72.681,59.793,93,60.44,93,60.44V31.707z"/>
            <path fill="none" stroke="#4A4A59" stroke-width="2" stroke-miterlimit="10" d="M89.31,37.904c0,0-8.564,0.368-8.564,8.169 s8.564,8.169,8.564,8.169V37.904z"/>
            <circle fill="#747489" cx="82.305" cy="46.073" r="2.775"/>
        </g>
    </g>
</svg>
