<?xml version="1.0" encoding="utf-8"?>
<!DOCTYPE svg PUBLIC "-//W3C//DTD SVG 1.1//EN" "http://www.w3.org/Graphics/SVG/1.1/DTD/svg11.dtd">
<svg version="1.1" id="Layer_1" xmlns="http://www.w3.org/2000/svg" xmlns:xlink="http://www.w3.org/1999/xlink" x="0px" y="0px" width="100px" height="80px" viewBox="0 0 100 80" enable-background="new 0 0 100 80" xml:space="preserve">
    <g opacity="0.8">
        <g id="coord">
            <polyline fill="none" stroke="#23232B" stroke-width="2" stroke-miterlimit="10" points="5,9 5,76 93,76"/>
            <polygon fill="#23232B" points="98.406,75.88 89.594,78.88 89.594,72.88"/>
            <polygon fill="#23232B" points="5,1 8,10 2,10"/>
        </g>
        <g>
            <defs>
                <rect id="SVGID_1_" x="6.26" y="28.214" width="83.667" height="42.75"/>
            </defs>
            <clipPath id="SVGID_2_">
                <use xlink:href="#SVGID_1_"  overflow="visible"/>
            </clipPath>
            <path clip-path="url(#SVGID_2_)" fill="none" stroke="#23232B" stroke-width="2" stroke-miterlimit="10" d="M10.344,27.38 c0,0,1.917,41.083,12.667,41.083c7.75,0,21.167-8.667,39.417-42.083"/>
            <path clip-path="url(#SVGID_2_)" fill="none" stroke="#494954" stroke-width="2" stroke-miterlimit="10" d="M18.344,27.38 c0,0,2.757,41.083,18.22,41.083c11.148,0,30.446-8.667,56.697-42.083"/>
            <path clip-path="url(#SVGID_2_)" fill="none" stroke="#707084" stroke-width="2" stroke-miterlimit="10" d="M28.344,27.38 c0,0,4.812,41.083,31.798,41.083c19.456,0,53.137-8.667,98.952-42.083"/>
        </g>
        <g>
            <rect x="7.094" y="17.797" fill="none" width="6.333" height="6.833"/>
            <path d="M10.668,23.893h-0.77v-4.938l-1.164,0.016v-0.555l1.934-0.211V23.893z"/>
        </g>
        <g>
            <rect x="15.177" y="17.797" fill="none" width="6.333" height="6.833"/>
            <path d="M20.24,23.893h-3.688v-0.531l1.863-2.067c0.333-0.373,0.559-0.668,0.678-0.887s0.178-0.443,0.178-0.672
                     c0-0.284-0.083-0.523-0.248-0.717s-0.385-0.291-0.658-0.291c-0.393,0-0.683,0.101-0.869,0.303s-0.279,0.485-0.279,0.85h-0.738
                     l-0.008-0.023c-0.013-0.49,0.15-0.901,0.488-1.234s0.807-0.5,1.406-0.5c0.51,0,0.917,0.149,1.221,0.447s0.455,0.678,0.455,1.139
                     c0,0.31-0.092,0.621-0.275,0.932s-0.441,0.645-0.771,1.002l-1.496,1.625l0.008,0.02h2.734V23.893z"/>
        </g>
        <g>
            <rect x="25.094" y="17.797" fill="none" width="6.333" height="6.833"/>
            <path d="M27.524,20.694h0.672c0.341,0,0.583-0.085,0.725-0.256s0.213-0.408,0.213-0.713c0-0.326-0.081-0.573-0.242-0.742
                     s-0.4-0.254-0.715-0.254c-0.299,0-0.54,0.088-0.721,0.264s-0.271,0.41-0.271,0.701h-0.738l-0.008-0.023
                     c-0.013-0.43,0.143-0.795,0.467-1.096s0.748-0.451,1.271-0.451c0.526,0,0.945,0.14,1.258,0.42s0.469,0.679,0.469,1.197
                     c0,0.234-0.071,0.468-0.213,0.701s-0.355,0.411-0.639,0.533c0.341,0.112,0.583,0.288,0.725,0.527s0.213,0.508,0.213,0.805
                     c0,0.518-0.17,0.926-0.51,1.223s-0.774,0.445-1.303,0.445c-0.518,0-0.947-0.14-1.287-0.42s-0.503-0.66-0.49-1.139l0.012-0.023
                     h0.734c0,0.298,0.092,0.536,0.275,0.712c0.184,0.177,0.436,0.265,0.756,0.265c0.326,0,0.581-0.088,0.766-0.265
                     s0.277-0.437,0.277-0.782c0-0.35-0.082-0.608-0.246-0.774s-0.423-0.249-0.777-0.249h-0.672V20.694z"/>
        </g>
    </g>
</svg>
