<?xml version="1.0" encoding="utf-8"?>
<!DOCTYPE svg PUBLIC "-//W3C//DTD SVG 1.1//EN" "http://www.w3.org/Graphics/SVG/1.1/DTD/svg11.dtd">
<svg version="1.1" id="Layer_1" xmlns="http://www.w3.org/2000/svg" xmlns:xlink="http://www.w3.org/1999/xlink" x="0px" y="0px" width="100px" height="80px" viewBox="0 0 100 80" enable-background="new 0 0 100 80" xml:space="preserve">
    <g opacity="0.8">
        <g>
            <g>
                <line fill="none" stroke="#515160" stroke-width="2" stroke-miterlimit="10" x1="4.522" y1="29.296" x2="7.022" y2="29.296"/>
                <line fill="none" stroke="#515160" stroke-width="2" stroke-miterlimit="10" stroke-dasharray="4.527,1.8108" x1="8.833" y1="29.296" x2="39.617" y2="29.296"/>
                <polyline fill="none" stroke="#515160" stroke-width="2" stroke-miterlimit="10" points="40.522,29.296 43.022,29.296 44.648,31.195"/>
                <polyline fill="none" stroke="#515160" stroke-width="2" stroke-miterlimit="10" stroke-dasharray="4.7459,1.8984" points="45.882,32.638 62.272,51.796 65.479,71.89"/>
                <line fill="none" stroke="#515160" stroke-width="2" stroke-miterlimit="10" x1="65.628" y1="72.827" x2="66.022" y2="75.296"/>
            </g>
        </g>
        <g>
            <polyline fill="none" stroke="#23232B" stroke-width="2" stroke-miterlimit="10" points="4.022,19.046 45.022,19.046 73.522,50.796 82.272,76.046"/>
        </g>
        <g>
            <path fill="#23232B" d="M13.031,62.506c0.113,0.897,0.301,1.692,0.563,2.386c0.261,0.693,0.608,1.277,1.04,1.752
                                    c0.431,0.476,0.954,0.837,1.569,1.085c0.614,0.249,1.332,0.373,2.151,0.373c0.688,0,1.281-0.092,1.778-0.274
                                    c0.497-0.184,0.924-0.421,1.281-0.713s0.658-0.619,0.902-0.98s0.458-0.726,0.641-1.092l1.504,0.837
                                    c-0.279,0.558-0.595,1.067-0.948,1.529s-0.769,0.861-1.249,1.196c-0.479,0.336-1.04,0.595-1.68,0.778
                                    c-0.641,0.183-1.384,0.274-2.229,0.274c-2.17,0-3.846-0.597-5.027-1.791s-1.898-2.981-2.151-5.36H9.763l0.458-1.256h0.85v-2.092
                                    H9.763l0.458-1.255h0.955c0.131-1.15,0.371-2.166,0.719-3.047c0.349-0.88,0.815-1.621,1.399-2.223s1.286-1.057,2.105-1.366
                                    s1.77-0.464,2.85-0.464c0.802,0,1.517,0.085,2.145,0.255s1.183,0.407,1.667,0.713c0.484,0.305,0.904,0.673,1.262,1.104
                                    s0.675,0.908,0.955,1.432l-1.556,0.915c-0.209-0.418-0.442-0.802-0.699-1.15c-0.257-0.349-0.563-0.649-0.916-0.902
                                    s-0.76-0.451-1.222-0.595c-0.462-0.144-0.999-0.216-1.608-0.216c-0.802,0-1.506,0.122-2.111,0.366
                                    c-0.606,0.244-1.123,0.602-1.55,1.072c-0.427,0.471-0.769,1.05-1.026,1.738c-0.257,0.689-0.442,1.478-0.556,2.367h8.159
                                    l-0.418,1.255h-7.818v2.092h7.256l-0.458,1.256H13.031z"/>
        </g>
        <g>
            <polyline fill="none" stroke="#23232B" stroke-width="2" stroke-miterlimit="10" points="5,9 5,76 93,76"/>
            <polygon fill="#23232B" points="98.478,75.761 89.665,78.761 89.665,72.761"/>
            <polygon fill="#23232B" points="5,1 8,10 2,10"/>
        </g>
    </g>
</svg>
