<?xml version="1.0" encoding="utf-8"?>
<!DOCTYPE svg PUBLIC "-//W3C//DTD SVG 1.1//EN" "http://www.w3.org/Graphics/SVG/1.1/DTD/svg11.dtd">
<svg version="1.1" id="Layer_1" xmlns="http://www.w3.org/2000/svg" xmlns:xlink="http://www.w3.org/1999/xlink" x="0px" y="0px" width="105px" height="82px" viewBox="0 0 105 82" enable-background="new 0 0 105 82" xml:space="preserve">
    <g opacity="0.8">
        <g>
            <g>
                <path fill="none" stroke="#565666" stroke-width="2" stroke-miterlimit="10" d="M9.731,40.57c0.853,0,1.686-0.007,2.501-0.022"/>
                <path fill="none" stroke="#565666" stroke-width="2" stroke-miterlimit="10" stroke-dasharray="4.8626,1.945" d="M14.176,40.499 c29.46-0.962,33.234-11.422,51.043-11.422c12.38,0,14.273,19.973,14.551,28.276"/>
                <path fill="none" stroke="#565666" stroke-width="2" stroke-miterlimit="10" d="M79.797,58.323 c0.029,1.328,0.017,2.224,0.017,2.497"/>
            </g>
        </g>
        <path fill="none" stroke="#23232B" stroke-width="2" stroke-miterlimit="10" d="M10.147,29.32c29.25,0,67.583,18.5,69.667,32.083"
              />
        <g>
            <polyline fill="none" stroke="#23232B" stroke-width="2" stroke-miterlimit="10" points="9.5,10 9.5,62 97.5,62    "/>
            <polygon fill="#23232B" points="103.936,61.9 95.124,64.9 95.124,58.9"/>
            <polygon fill="#23232B" points="9.5,2 12.5,11 6.5,11"/>
        </g>
        <g>
            <path fill="#222233" d="M25.564,80.403c-2.5,0-5.417-2.063-5.417-4.917c0-3.167,1.276-3.887,2.042-4.958 c0.833-1.167,1.682-2.167,3.333-2.167c2.464,0,14.035-3.824,12.5-2.333C32.231,71.653,32.814,80.403,25.564,80.403z"/>
            <ellipse fill="#4F4F63" cx="25.705" cy="75.32" rx="4.151" ry="3.767"/>
            <ellipse fill="#222233" cx="25.689" cy="75.32" rx="2.574" ry="2.336"/>
            <g>
                <path fill="#4F4F63" d="M13.547,59.577c-1.65-0.004-3.819,1.066-4.821,2.377l-5.842,7.648c-1.002,1.311-0.474,2.288,1.172,2.172 l74.932-5.325c1.646-0.117,3.162-1.552,3.369-3.189l0.07-0.554c0.207-1.637-0.973-2.979-2.623-2.983L13.547,59.577z"/>
            </g>
        </g>
    </g>
</svg>
