<?xml version="1.0" encoding="utf-8"?>
<!DOCTYPE svg PUBLIC "-//W3C//DTD SVG 1.1//EN" "http://www.w3.org/Graphics/SVG/1.1/DTD/svg11.dtd">
<svg version="1.1" id="Layer_1" xmlns="http://www.w3.org/2000/svg" xmlns:xlink="http://www.w3.org/1999/xlink" x="0px" y="0px" width="110px" height="70px" viewBox="0 0 110 70" enable-background="new 0 0 110 70" xml:space="preserve">
    <g>
        <g>
            <g>
                <polygon fill="#343434" points="74.263,29.852 73.768,30.282 72.779,31.142 72.284,31.572 66.823,29.346"/>
            </g>
            <g enable-background="new">
                <g><polygon fill="#343434" points="78.225,33.904 77.73,34.334 76.741,35.194 76.246,35.624 70.785,33.398"/></g>
                <g><polygon fill="#343434" points="85.241,35.925 84.252,36.785 76.741,35.194 77.73,34.334"/></g>
                <g><polygon fill="#343434" points="104.53,50.18 97.091,49.674 97.585,49.244 98.574,48.384 99.069,47.954"/></g>
                <g><path fill="#59596B" d="M106.941,50.69c-4.113,3.575-15.993,1.979-29.739,0.133c-1.985-0.267-4.004-0.538-6.029-0.796 c-0.627-0.08-1.255-0.159-1.882-0.236c-12.776-1.566-25.393-2.388-30.441,2l-1.732-0.367c5.857-5.092,19.527-4.19,33.174-2.504 c0.628,0.078,1.254,0.157,1.881,0.237c1.94,0.249,3.873,0.508,5.775,0.764c12.345,1.656,24.012,3.226,27.261,0.402 c3.315-2.882-6.769-5.938-17.444-9.172c-1.562-0.474-3.148-0.955-4.722-1.444c-0.529-0.165-1.057-0.33-1.582-0.497 c-11.392-3.616-21.426-7.709-15.629-12.748l1.732,0.367c-4.986,4.334,4.257,8.118,14.899,11.511 c0.524,0.167,1.051,0.333,1.58,0.498c1.643,0.513,3.302,1.016,4.935,1.511C100.369,43.797,111.12,47.057,106.941,50.69z"/></g>
            </g>
            <g><polygon fill="#343434" points="64.449,54 63.455,54.864 49.009,51.804 50.003,50.94"/></g>
            <g><polygon fill="#343434" points="50.498,50.51 50.003,50.94 49.009,51.804 48.515,52.234 43.058,50.004"/></g>
            <g><polygon fill="#343434" points="60.4,49.399 59.905,49.829 58.916,50.689 58.421,51.119 52.96,48.893"/></g>
            <g><polygon fill="#343434" points="67.417,51.42 66.427,52.28 58.916,50.689 59.905,49.829"/></g>
            <g><polygon fill="#343434" points="94.628,51.291 87.184,50.789 87.679,50.359 88.672,49.495 89.167,49.065"/></g>
            <g><polygon fill="#343434" points="88.672,49.495 87.679,50.359 74.099,47.483 75.093,46.619"/></g>
            <g enable-background="new">
                <g><path fill="#1C1C22" d="M83.043,39.708l-2.01,1.748l-0.989,0.86l-1.983,1.724l-0.989,0.86l-1.979,1.72l-0.994,0.864 l-1.926,1.675c-0.627-0.08-1.253-0.159-1.881-0.237l11.17-9.71C81.986,39.377,82.514,39.543,83.043,39.708z"/></g>
                <g><polygon fill="#343434" points="98.574,48.384 97.585,49.244 77.071,44.899 78.061,44.039"/></g>
            </g>
            <g><polygon fill="#343434" points="100.568,46.128 93.129,45.621 93.623,45.191 94.613,44.331 95.107,43.901"/></g>
            <g><polygon fill="#343434" points="94.613,44.331 93.623,45.191 80.044,42.315 81.033,41.455"/></g>
            <g><path fill="#1C1C22" d="M84.044,38.838c-0.529-0.165-1.056-0.331-1.58-0.498l1.788-1.555l0.989-0.86l1.983-1.724l0.989-0.86 l1.979-1.72l-22.628-4.792l-1.732-0.367l-31.683-6.71L5.434,44.714l56.043,11.869l1.979-1.72L64.449,54l1.979-1.72l0.989-0.86 l1.873-1.628c0.627,0.077,1.255,0.156,1.882,0.236l-8.953,7.783L2.713,45.208l30.699-26.686l59.506,12.603L84.044,38.838z"/></g>
            <g><polygon fill="#343434" points="88.214,33.341 87.224,34.201 72.779,31.142 73.768,30.282"/></g>
        </g>
    </g>
</svg>
