<?xml version="1.0" encoding="utf-8"?>
<!DOCTYPE svg PUBLIC "-//W3C//DTD SVG 1.1//EN" "http://www.w3.org/Graphics/SVG/1.1/DTD/svg11.dtd">
<svg version="1.1" id="Layer_1" xmlns="http://www.w3.org/2000/svg" xmlns:xlink="http://www.w3.org/1999/xlink" x="0px" y="0px" width="100px" height="80px" viewBox="0 0 100 80" enable-background="new 0 0 100 80" xml:space="preserve">
    <g opacity="0.8">
        <g>
            <g>
                <line fill="none" stroke="#646475" stroke-width="2" stroke-miterlimit="10" x1="4.042" y1="43.351" x2="6.042" y2="43.351"/>
                <line fill="none" stroke="#646475" stroke-width="2" stroke-miterlimit="10" stroke-dasharray="3.8391,2.8793" x1="8.921" y1="43.351" x2="88.102" y2="43.351"/>
                <line fill="none" stroke="#646475" stroke-width="2" stroke-miterlimit="10" x1="89.542" y1="43.351" x2="91.542" y2="43.351"/>
            </g>
        </g>
        <path fill="none" stroke="#2B2B33" stroke-width="2" stroke-miterlimit="10" d="M8.375,22.46 c15.833,26.333,56.833,42.057,81.167,42.057"/>
        <path fill="none" stroke="#4A4A56" stroke-width="2" stroke-miterlimit="10" d="M84.208,22.46 C62.917,46.392,46.542,54.684,13.542,54.684"/>
        <g>
            <rect x="13.938" y="15.585" fill="none" width="48.208" height="9.75"/>
            <path d="M16.784,22.551c0.319,0,0.6-0.099,0.842-0.295s0.364-0.438,0.364-0.725h0.864l0.01,0.029 c0.016,0.456-0.187,0.861-0.608,1.216s-0.912,0.532-1.472,0.532c-0.768,0-1.356-0.25-1.763-0.752s-0.61-1.131-0.61-1.89v-0.205 c0-0.752,0.204-1.379,0.613-1.882s0.995-0.754,1.76-0.754c0.619,0,1.124,0.182,1.516,0.547s0.582,0.812,0.569,1.343l-0.01,0.029 H17.99c0-0.322-0.114-0.597-0.342-0.823s-0.516-0.339-0.864-0.339c-0.504,0-0.865,0.181-1.082,0.544 c-0.216,0.362-0.325,0.807-0.325,1.333v0.205c0,0.54,0.107,0.989,0.322,1.348C15.915,22.372,16.276,22.551,16.784,22.551z"/>
            <path d="M22.003,25.468h-1.736l-0.393,1.067h-0.572l1.603-4.145h0.481l1.577,4.145h-0.572L22.003,25.468z M20.441,24.998h1.395 l-0.683-1.887h-0.017L20.441,24.998z"/>
            <path d="M23.928,24.455l0.04,0.404c0.101-0.146,0.229-0.26,0.383-0.34c0.154-0.081,0.334-0.121,0.539-0.121 c0.205,0,0.381,0.048,0.528,0.143s0.257,0.237,0.332,0.427c0.097-0.174,0.225-0.313,0.384-0.416s0.345-0.154,0.558-0.154 c0.313,0,0.561,0.108,0.743,0.323s0.273,0.54,0.273,0.972v1.842h-0.561v-1.848c0-0.303-0.052-0.519-0.157-0.645 c-0.104-0.126-0.26-0.189-0.467-0.189c-0.192,0-0.347,0.066-0.465,0.199c-0.119,0.133-0.188,0.301-0.209,0.504v0.023v1.956h-0.563 v-1.848c0-0.288-0.054-0.5-0.161-0.633c-0.107-0.134-0.261-0.201-0.462-0.201c-0.171,0-0.312,0.035-0.421,0.105 s-0.194,0.169-0.253,0.296v2.28h-0.561v-3.08H23.928z"/>
            <path d="M30.416,27.535c-0.019-0.093-0.034-0.175-0.044-0.246c-0.01-0.071-0.017-0.143-0.019-0.215 c-0.104,0.148-0.24,0.271-0.408,0.371s-0.349,0.149-0.542,0.149c-0.321,0-0.565-0.082-0.733-0.246s-0.252-0.39-0.252-0.679 c0-0.294,0.119-0.524,0.357-0.69c0.238-0.166,0.561-0.249,0.969-0.249h0.609v-0.305c0-0.18-0.055-0.323-0.165-0.428 c-0.11-0.105-0.266-0.158-0.467-0.158c-0.18,0-0.327,0.046-0.44,0.138c-0.113,0.092-0.169,0.203-0.169,0.332h-0.535l-0.005-0.017 c-0.012-0.224,0.094-0.429,0.317-0.615c0.223-0.186,0.511-0.279,0.864-0.279c0.349,0,0.63,0.089,0.843,0.266 c0.212,0.178,0.319,0.434,0.319,0.768v1.483c0,0.11,0.006,0.216,0.017,0.319s0.032,0.203,0.063,0.302H30.416z M29.485,27.123 c0.203,0,0.386-0.052,0.549-0.156c0.164-0.104,0.27-0.223,0.319-0.358v-0.5h-0.629c-0.226,0-0.407,0.057-0.542,0.17 s-0.204,0.247-0.204,0.4c0,0.136,0.043,0.244,0.128,0.324C29.192,27.083,29.318,27.123,29.485,27.123z"/>
            <path d="M32.773,25.591l0.655-1.136h0.655l-0.999,1.523l1.027,1.557h-0.643l-0.683-1.164l-0.684,1.164h-0.649l1.028-1.557 l-1-1.523h0.646L32.773,25.591z"/>
        </g>
        <g>
            <rect x="86.124" y="15.481" fill="none" width="8.419" height="9.958"/>
            <path d="M90.268,20.772c-0.395,0-0.689,0.069-0.887,0.208c-0.196,0.138-0.295,0.349-0.295,0.632c0,0.238,0.111,0.438,0.334,0.601 c0.224,0.163,0.526,0.244,0.911,0.244c0.364,0,0.665-0.091,0.9-0.273c0.236-0.182,0.354-0.397,0.354-0.645h0.908l0.01,0.029 c0.016,0.527-0.192,0.93-0.625,1.208c-0.434,0.278-0.949,0.417-1.548,0.417c-0.658,0-1.19-0.141-1.6-0.422 c-0.408-0.282-0.612-0.668-0.612-1.16c0-0.296,0.084-0.548,0.251-0.757c0.168-0.208,0.413-0.365,0.735-0.469 c-0.283-0.114-0.503-0.27-0.659-0.469s-0.234-0.417-0.234-0.654c0-0.488,0.189-0.866,0.568-1.133c0.38-0.267,0.896-0.4,1.551-0.4 c0.596,0,1.096,0.143,1.501,0.427s0.6,0.653,0.584,1.106l-0.01,0.029h-0.908c0-0.228-0.113-0.421-0.34-0.581 c-0.226-0.16-0.502-0.239-0.827-0.239c-0.378,0-0.665,0.077-0.862,0.232c-0.196,0.155-0.295,0.341-0.295,0.559 c0,0.241,0.089,0.431,0.266,0.569c0.178,0.138,0.453,0.208,0.828,0.208h1.021v0.732H90.268z"/>
        </g>
        <g>
            <rect x="77.875" y="45.181" fill="none" width="21.083" height="8.559"/>
            <path d="M80.502,50.473c-0.395,0-0.689,0.069-0.887,0.207c-0.196,0.139-0.295,0.35-0.295,0.633c0,0.237,0.111,0.438,0.334,0.601 c0.224,0.162,0.526,0.244,0.911,0.244c0.364,0,0.665-0.092,0.9-0.273c0.236-0.183,0.354-0.397,0.354-0.645h0.908l0.01,0.029 c0.016,0.527-0.192,0.93-0.625,1.208c-0.434,0.278-0.949,0.418-1.548,0.418c-0.658,0-1.19-0.141-1.6-0.423 c-0.408-0.281-0.612-0.668-0.612-1.159c0-0.297,0.084-0.549,0.251-0.757c0.168-0.209,0.413-0.365,0.735-0.469 c-0.283-0.114-0.503-0.271-0.659-0.469c-0.156-0.199-0.234-0.417-0.234-0.654c0-0.488,0.189-0.866,0.568-1.133 c0.38-0.268,0.896-0.4,1.551-0.4c0.596,0,1.096,0.143,1.501,0.427c0.405,0.285,0.6,0.653,0.584,1.106l-0.01,0.029h-0.908 c0-0.229-0.113-0.422-0.34-0.581c-0.226-0.16-0.502-0.239-0.827-0.239c-0.378,0-0.665,0.077-0.862,0.231 c-0.196,0.155-0.295,0.341-0.295,0.56c0,0.24,0.089,0.431,0.266,0.568c0.178,0.139,0.453,0.208,0.828,0.208h1.021v0.732H80.502z" />
            <path d="M84.334,53.335v1.796h-0.562v-4.142h1.501c0.453,0,0.8,0.101,1.039,0.302c0.238,0.201,0.358,0.493,0.358,0.877 c0,0.212-0.056,0.397-0.167,0.555c-0.11,0.157-0.272,0.283-0.485,0.376c0.229,0.074,0.392,0.194,0.491,0.36 s0.149,0.371,0.149,0.616v0.39c0,0.129,0.015,0.245,0.043,0.348s0.078,0.186,0.148,0.25v0.068h-0.578 c-0.074-0.064-0.122-0.159-0.143-0.284c-0.021-0.126-0.031-0.255-0.031-0.388v-0.378c0-0.225-0.065-0.404-0.196-0.541 s-0.307-0.205-0.526-0.205H84.334z M84.334,52.894h0.882c0.317,0,0.546-0.061,0.685-0.181c0.14-0.12,0.21-0.303,0.21-0.55 c0-0.232-0.068-0.413-0.204-0.541s-0.347-0.191-0.633-0.191h-0.939V52.894z"/>
            <path d="M88.809,55.19c-0.429,0-0.771-0.143-1.023-0.428c-0.253-0.286-0.38-0.656-0.38-1.112v-0.125 c0-0.438,0.13-0.803,0.392-1.095c0.261-0.291,0.569-0.437,0.926-0.437c0.416,0,0.73,0.125,0.942,0.376 c0.213,0.25,0.319,0.584,0.319,1.002v0.35h-1.999l-0.008,0.015c0.006,0.295,0.08,0.538,0.225,0.729 c0.145,0.189,0.347,0.285,0.606,0.285c0.189,0,0.356-0.027,0.5-0.081c0.143-0.055,0.267-0.129,0.371-0.224l0.219,0.364 c-0.109,0.109-0.255,0.2-0.436,0.272C89.283,55.154,89.064,55.19,88.809,55.19z M88.723,52.436c-0.188,0-0.348,0.079-0.48,0.236 c-0.133,0.158-0.215,0.356-0.245,0.595l0.006,0.014h1.421v-0.073c0-0.22-0.06-0.403-0.177-0.551 C89.129,52.509,88.955,52.436,88.723,52.436z"/>
            <path d="M91.22,51.263h-0.561V50.69h0.561V51.263z M91.22,55.131h-0.561v-3.08h0.561V55.131z"/>
            <path d="M93.873,54.312c0-0.124-0.047-0.226-0.142-0.305c-0.094-0.08-0.271-0.149-0.533-0.208 c-0.374-0.081-0.655-0.191-0.845-0.331c-0.188-0.14-0.283-0.329-0.283-0.57c0-0.25,0.106-0.463,0.319-0.639 c0.213-0.177,0.489-0.265,0.831-0.265c0.358,0,0.644,0.092,0.855,0.276c0.212,0.184,0.313,0.408,0.303,0.672l-0.005,0.017h-0.535 c0-0.135-0.057-0.256-0.17-0.363c-0.112-0.106-0.262-0.16-0.448-0.16c-0.199,0-0.348,0.043-0.444,0.131 c-0.097,0.087-0.145,0.192-0.145,0.315c0,0.122,0.042,0.218,0.128,0.288c0.085,0.07,0.259,0.133,0.521,0.188 c0.39,0.084,0.679,0.197,0.868,0.341c0.19,0.143,0.285,0.335,0.285,0.576c0,0.273-0.11,0.494-0.332,0.663 c-0.221,0.169-0.51,0.253-0.866,0.253c-0.394,0-0.702-0.1-0.929-0.299c-0.226-0.199-0.333-0.432-0.321-0.697l0.006-0.017h0.535 c0.01,0.198,0.083,0.343,0.222,0.435s0.301,0.138,0.487,0.138c0.199,0,0.355-0.041,0.468-0.121 C93.816,54.548,93.873,54.442,93.873,54.312z"/>
            <path d="M96.409,55.19c-0.429,0-0.771-0.143-1.023-0.428c-0.253-0.286-0.38-0.656-0.38-1.112v-0.125 c0-0.438,0.13-0.803,0.392-1.095c0.261-0.291,0.569-0.437,0.926-0.437c0.416,0,0.73,0.125,0.942,0.376 c0.213,0.25,0.319,0.584,0.319,1.002v0.35h-1.999l-0.008,0.015c0.006,0.295,0.08,0.538,0.225,0.729 c0.145,0.189,0.347,0.285,0.606,0.285c0.189,0,0.356-0.027,0.5-0.081c0.143-0.055,0.267-0.129,0.371-0.224l0.219,0.364 c-0.109,0.109-0.255,0.2-0.436,0.272C96.884,55.154,96.665,55.19,96.409,55.19z M96.323,52.436c-0.188,0-0.348,0.079-0.48,0.236 c-0.133,0.158-0.215,0.356-0.245,0.595l0.006,0.014h1.421v-0.073c0-0.22-0.06-0.403-0.177-0.551 C96.729,52.509,96.556,52.436,96.323,52.436z"/>
        </g>
        <g>
            <polyline fill="none" stroke="#23232B" stroke-width="2" stroke-miterlimit="10" points="4,9 4,76 92,76"/>
            <polygon fill="#23232B" points="97.997,75.983 89.185,78.983 89.185,72.983"/>
            <polygon fill="#23232B" points="4.042,1.017 7.042,10.017 1.042,10.017"/>
        </g>
    </g>
</svg>
